<?xml version="1.0"?>
<svg xmlns="http://www.w3.org/2000/svg" xmlns:xlink="http://www.w3.org/1999/xlink" xmlns:svgjs="http://svgjs.com/svgjs" version="1.1" width="512" height="512" x="0" y="0" viewBox="0 0 481.698 481.698" style="enable-background:new 0 0 512 512" xml:space="preserve" class=""><g>
<g xmlns="http://www.w3.org/2000/svg">
	<path style="" d="M189.91,314.514c28.735,14.629,41.273,49.11,29.257,77.845L76.016,323.918l0,0   C76.016,323.918,159.608,298.841,189.91,314.514z" fill="#e2d784" data-original="#4dcfe0" class=""/>
	<path style="" d="M76.016,323.918l143.151,68.441c-0.522,1.567-1.567,3.135-2.09,4.702   c-15.673,29.78-52.767,41.273-83.069,25.6C104.229,406.988,77.061,326.531,76.016,323.918z" fill="#e2d784" data-original="#4dcfe0" class=""/>
	<path style="" d="M263.053,293.616l142.629-68.441c-2.612,7.837-28.735,83.069-57.992,98.22   c-30.302,15.673-67.396,4.18-83.069-25.6C264.62,296.229,263.575,295.184,263.053,293.616z" fill="#e2d784" data-original="#4dcfe0" class=""/>
	<path style="" d="M406.204,224.653L406.204,224.653l-143.151,68.963c-12.539-28.735,0.522-63.216,29.257-78.367   C322.612,199.576,406.204,224.653,406.204,224.653z" fill="#e2d784" data-original="#4dcfe0" class=""/>
	<path style="" d="M242.155,16.196v158.302c-33.437,0-60.604-27.69-60.604-61.649s60.082-97.175,60.082-97.175   S241.633,15.673,242.155,16.196z" fill="#e2d784" data-original="#4dcfe0" class=""/>
	<path style="" d="M302.759,112.849c0,33.959-27.167,61.649-60.604,61.649V16.196   C248.424,22.465,302.759,80.457,302.759,112.849z" fill="#e2d784" data-original="#4dcfe0" class=""/>
</g>
<g xmlns="http://www.w3.org/2000/svg">
	<path style="" d="M410.906,209.502c-15.151-4.702-91.429-26.122-125.91-8.359   c-10.971,5.747-20.376,14.106-27.167,23.51v-36.049c34.482-7.314,60.604-38.661,60.604-75.755   c0-37.616-51.722-94.041-63.216-105.535C252.604,3.135,247.38,0,242.155,0c0,0,0,0-0.522,0c0,0,0,0-0.522,0   c-4.18,0-8.359,1.567-10.971,4.702c-10.971,11.494-64.261,69.486-64.261,108.147c0,37.094,26.122,68.441,60.604,75.755v138.449   c-7.314-10.971-17.241-19.853-29.257-26.122c-33.959-17.763-110.759,3.657-125.388,8.359c-4.18,1.045-7.837,4.18-9.404,8.359   c-1.567,4.18-2.09,8.359-0.522,12.539l0.522,1.045c14.629,40.229,37.616,91.429,64.784,106.057   c11.494,5.747,23.51,8.882,35.527,8.882c24.555,0,48.588-11.494,63.216-32.392l0.522,0.522v51.722   c0,8.882,6.792,15.673,15.673,15.673s15.673-6.792,15.673-15.673V315.559c14.629,19.853,38.139,30.824,61.649,30.824   c12.016,0,24.555-2.612,35.527-8.882c34.482-17.763,60.604-92.473,65.829-107.102c0.522-1.567,1.045-3.135,1.045-4.702v-0.522   C421.878,217.861,417.175,211.592,410.906,209.502z M299.624,229.355c10.449-5.747,35.527-3.657,60.604,0.522l-86.204,41.273   C273.502,254.433,283.429,237.714,299.624,229.355z M257.829,155.69V57.992c15.151,19.853,29.257,41.796,29.257,54.857   C287.086,132.702,275.069,149.42,257.829,155.69z M197.224,112.849c0-12.016,13.584-34.482,29.257-54.857v98.22   C209.241,149.42,197.224,132.702,197.224,112.849z M182.596,328.62c16.196,8.359,25.6,24.555,25.078,41.273l-85.159-40.751   C147.592,324.441,172.147,322.874,182.596,328.62z M141.322,408.555c-9.927-5.224-22.988-25.078-36.049-53.29l91.429,43.363   C183.118,413.78,160.131,418.482,141.322,408.555z M340.898,309.29c-18.808,9.927-41.273,5.224-55.38-9.404l91.429-43.363   C365.975,280.033,352.914,303.543,340.898,309.29z" fill="#062c30" data-original="#3a2c51" class=""/>
	<path style="" d="M76.016,339.592c-4.18,0-8.359-1.567-10.971-4.702c-0.522-0.522-1.567-1.567-2.09-2.612   c-0.522-1.045-1.045-1.567-1.567-2.612c-0.522-1.045-0.522-2.09-1.045-3.135c0-1.045-0.522-2.09-0.522-3.135   c0-4.18,1.567-8.359,4.702-10.971c0.522-0.522,1.567-1.567,2.612-2.09s1.567-1.045,2.612-1.567c1.045-0.522,2.09-0.522,3.135-1.045   c2.09-0.522,4.18-0.522,6.269,0c1.045,0,2.09,0.522,3.135,1.045c1.045,0.522,2.09,1.045,2.612,1.567   c1.045,0.522,1.567,1.045,2.612,2.09c3.135,3.135,4.702,6.792,4.702,10.971c0,1.045,0,2.09-0.522,3.135   c0,1.045-0.522,2.09-1.045,3.135c-0.522,1.045-1.045,2.09-1.567,2.612c-0.522,1.045-1.045,1.567-2.09,2.612   C84.375,338.024,80.196,339.592,76.016,339.592z" fill="#062c30" data-original="#3a2c51" class=""/>
</g>
<g xmlns="http://www.w3.org/2000/svg">
</g>
<g xmlns="http://www.w3.org/2000/svg">
</g>
<g xmlns="http://www.w3.org/2000/svg">
</g>
<g xmlns="http://www.w3.org/2000/svg">
</g>
<g xmlns="http://www.w3.org/2000/svg">
</g>
<g xmlns="http://www.w3.org/2000/svg">
</g>
<g xmlns="http://www.w3.org/2000/svg">
</g>
<g xmlns="http://www.w3.org/2000/svg">
</g>
<g xmlns="http://www.w3.org/2000/svg">
</g>
<g xmlns="http://www.w3.org/2000/svg">
</g>
<g xmlns="http://www.w3.org/2000/svg">
</g>
<g xmlns="http://www.w3.org/2000/svg">
</g>
<g xmlns="http://www.w3.org/2000/svg">
</g>
<g xmlns="http://www.w3.org/2000/svg">
</g>
<g xmlns="http://www.w3.org/2000/svg">
</g>
</g></svg>
