<?xml version="1.0"?>
<svg xmlns="http://www.w3.org/2000/svg" xmlns:xlink="http://www.w3.org/1999/xlink" xmlns:svgjs="http://svgjs.com/svgjs" version="1.1" width="512" height="512" x="0" y="0" viewBox="0 0 474.384 474.384" style="enable-background:new 0 0 512 512" xml:space="preserve" class=""><g>
<g xmlns="http://www.w3.org/2000/svg">
	<path style="" d="M158.824,303.02c-9.404,11.494-22.465,19.331-38.139,21.943   c-27.167,3.657-53.29-12.016-63.216-37.616l-34.482-89.861l96.131,9.404c27.167,2.612,49.11,24.033,52.767,51.2   c0.522,2.612,0.522,5.224,0.522,7.837C172.408,279.51,167.184,292.571,158.824,303.02z" fill="#e2d784" data-original="#4dcfe0" class=""/>
	<path style="" d="M237.714,188.082L237.714,188.082c-15.151,0-30.302-5.747-42.318-17.241   c-19.331-19.331-22.988-49.633-8.359-73.143l50.678-82.024l50.678,82.024c14.629,23.51,10.971,53.812-8.359,73.143   C268.016,182.335,252.865,188.082,237.714,188.082z" fill="#e2d784" data-original="#4dcfe0" class=""/>
	<path style="" d="M315.559,303.02c-8.359-10.449-13.584-23.51-13.584-37.616c0-2.612,0-5.224,0.522-7.837   c3.657-27.167,25.6-48.588,52.767-51.2l96.131-8.882l-34.482,89.861c-9.927,25.6-36.049,41.273-63.216,37.616   C338.025,322.873,324.441,314.514,315.559,303.02z" fill="#e2d784" data-original="#4dcfe0" class=""/>
</g>
<path xmlns="http://www.w3.org/2000/svg" style="" d="M463.935,188.082c-3.135-4.18-8.359-6.792-14.106-6.269l-96.131,9.404  c-33.959,3.135-62.171,30.302-66.873,64.261c-0.522,4.18-0.522,7.314-0.522,9.927c0,11.494,3.135,23.51,8.359,33.959l-41.273,32.392  V202.188c14.106-3.135,27.167-9.927,37.616-20.376c24.555-24.555,29.257-62.694,10.449-92.473L251.298,7.314  C248.686,2.612,243.461,0,237.714,0c-5.225,0-10.449,2.612-13.584,7.314l-50.678,82.024c-18.286,29.78-14.106,67.918,10.449,92.473  c10.449,10.449,23.51,17.241,37.616,20.376V332.8l-41.796-33.437c5.224-10.449,8.359-22.465,8.359-33.959  c0-2.612,0-5.747-0.522-9.927c-4.702-33.959-32.914-61.127-66.873-64.261l-96.131-9.404c-5.224-0.522-10.449,1.567-14.106,6.269  c-3.135,4.18-4.18,9.927-2.09,15.151l34.482,89.861c11.494,29.257,39.184,48.065,70.008,48.065c3.135,0,6.792,0,9.927-0.522  c13.584-2.09,26.645-7.837,37.616-16.718l61.127,48.065l0.522,0.522v86.204c0,8.882,6.792,15.673,15.673,15.673  s15.673-6.792,15.673-15.673v-87.249l60.604-47.543c10.449,8.882,23.51,14.629,37.616,16.718c3.135,0.522,6.792,0.522,9.927,0.522  c30.824,0,58.514-18.808,70.008-48.065l34.482-89.861C468.114,198.008,467.069,192.261,463.935,188.082z M118.596,309.29  c-19.853,2.612-39.184-8.882-46.498-27.69l-25.6-66.351l71.053,6.792c19.853,2.09,36.049,17.763,38.661,37.616  c0,0.522,0,0.522,0,1.045c0,1.045,0,2.612,0,4.18c0,5.224-1.045,9.927-2.612,14.106l-31.347-24.555  c-6.792-5.224-16.718-4.18-21.943,2.612c-5.224,6.792-4.18,16.718,2.612,21.943l30.824,24.033  C129.567,306.678,124.343,308.767,118.596,309.29z M206.367,159.869L206.367,159.869c-14.629-14.629-16.718-36.571-6.269-53.812  l37.094-60.604l37.616,60.604c10.971,17.241,8.359,39.184-5.747,53.29c-4.702,4.702-9.927,7.837-15.673,9.927V128  c0-8.882-6.792-15.673-15.673-15.673s-15.673,6.792-15.673,15.673v41.796C216.294,167.184,211.069,164.049,206.367,159.869z   M402.286,281.6c-7.314,18.808-26.645,30.302-46.498,27.69c-5.747-0.522-10.971-2.612-15.673-5.747l30.825-24.033  c6.792-5.224,7.837-15.151,2.612-21.943s-15.151-7.837-21.943-2.612l-31.347,24.555c-1.567-4.18-2.612-8.882-2.612-14.106  c0-1.567,0-3.135,0-4.18c0-0.522,0-0.522,0-1.045c2.612-19.853,18.808-36.049,38.661-37.616l71.053-6.792L402.286,281.6z" fill="#062c30" data-original="#3a2c51" class=""/>
<g xmlns="http://www.w3.org/2000/svg">
</g>
<g xmlns="http://www.w3.org/2000/svg">
</g>
<g xmlns="http://www.w3.org/2000/svg">
</g>
<g xmlns="http://www.w3.org/2000/svg">
</g>
<g xmlns="http://www.w3.org/2000/svg">
</g>
<g xmlns="http://www.w3.org/2000/svg">
</g>
<g xmlns="http://www.w3.org/2000/svg">
</g>
<g xmlns="http://www.w3.org/2000/svg">
</g>
<g xmlns="http://www.w3.org/2000/svg">
</g>
<g xmlns="http://www.w3.org/2000/svg">
</g>
<g xmlns="http://www.w3.org/2000/svg">
</g>
<g xmlns="http://www.w3.org/2000/svg">
</g>
<g xmlns="http://www.w3.org/2000/svg">
</g>
<g xmlns="http://www.w3.org/2000/svg">
</g>
<g xmlns="http://www.w3.org/2000/svg">
</g>
</g></svg>
