<?xml version="1.0"?>
<svg xmlns="http://www.w3.org/2000/svg" xmlns:xlink="http://www.w3.org/1999/xlink" xmlns:svgjs="http://svgjs.com/svgjs" version="1.1" width="512" height="512" x="0" y="0" viewBox="0 0 482.22 482.22" style="enable-background:new 0 0 512 512" xml:space="preserve" class=""><g>
<g xmlns="http://www.w3.org/2000/svg">
	<path style="" d="M240.849,187.559l0.522,13.584l-13.584-0.522c-48.588-1.567-89.861-42.318-90.906-90.906   l-0.522-13.584l13.584,0.522C198.531,98.22,239.804,138.971,240.849,187.559z" fill="#e2d784" data-original="#4dcfe0" class=""/>
	<path style="" d="M345.861,15.673v8.359c-1.567,51.2-44.931,94.563-96.131,96.131h-8.359v-8.359   c1.567-51.2,44.931-94.563,96.131-96.131C337.502,15.673,345.861,15.673,345.861,15.673z" fill="#e2d784" data-original="#4dcfe0" class=""/>
</g>
<polygon xmlns="http://www.w3.org/2000/svg" style="" points="367.282,266.449 367.282,320.261 347.429,320.261 135.314,320.261 114.939,320.261   114.939,266.449 241.371,266.449 " fill="#e2d784" data-original="#d4e1f4" class=""/>
<polygon xmlns="http://www.w3.org/2000/svg" style="" points="347.429,320.261 316.082,466.547 166.661,466.547 135.314,320.261 " fill="#e2d784" data-original="#00bbd3" class=""/>
<path xmlns="http://www.w3.org/2000/svg" style="" d="M367.282,250.776H257.045V135.314c56.424-5.225,102.922-53.29,104.49-111.282v-8.359  C361.535,6.792,354.743,0,345.861,0h-8.882C277.42,1.567,227.265,51.722,225.698,111.804v3.135  c-19.331-19.853-45.976-32.914-75.233-33.959l-13.584-0.522c-4.18,0-8.359,1.567-11.494,4.702  c-3.135,3.135-4.702,7.314-4.702,11.494l0.522,13.584c1.045,56.424,48.065,103.445,104.49,106.057v34.482H114.939  c-8.882,0-15.673,6.792-15.673,15.673v53.812c0,8.882,6.792,15.673,15.673,15.673h7.837l28.735,133.747  c1.567,7.314,7.837,12.539,15.151,12.539h149.42c7.314,0,13.584-5.224,15.151-12.539l28.735-133.747h7.314  c8.882,0,15.673-6.792,15.673-15.673v-53.812C382.955,257.567,376.163,250.776,367.282,250.776z M329.665,31.869  c-5.224,36.049-36.049,66.873-71.576,71.576C262.792,67.396,293.616,37.094,329.665,31.869z M152.555,112.327  c37.616,3.135,69.486,35.004,72.098,72.098C187.559,181.812,155.167,149.943,152.555,112.327z M130.612,282.122h220.996v22.465  H130.612V282.122z M303.543,450.873H179.2l-24.555-114.939h173.453L303.543,450.873z" fill="#062c30" data-original="#3a2c51" class=""/>
<g xmlns="http://www.w3.org/2000/svg">
</g>
<g xmlns="http://www.w3.org/2000/svg">
</g>
<g xmlns="http://www.w3.org/2000/svg">
</g>
<g xmlns="http://www.w3.org/2000/svg">
</g>
<g xmlns="http://www.w3.org/2000/svg">
</g>
<g xmlns="http://www.w3.org/2000/svg">
</g>
<g xmlns="http://www.w3.org/2000/svg">
</g>
<g xmlns="http://www.w3.org/2000/svg">
</g>
<g xmlns="http://www.w3.org/2000/svg">
</g>
<g xmlns="http://www.w3.org/2000/svg">
</g>
<g xmlns="http://www.w3.org/2000/svg">
</g>
<g xmlns="http://www.w3.org/2000/svg">
</g>
<g xmlns="http://www.w3.org/2000/svg">
</g>
<g xmlns="http://www.w3.org/2000/svg">
</g>
<g xmlns="http://www.w3.org/2000/svg">
</g>
</g></svg>
