<?xml version="1.0"?>
<svg xmlns="http://www.w3.org/2000/svg" xmlns:xlink="http://www.w3.org/1999/xlink" xmlns:svgjs="http://svgjs.com/svgjs" version="1.1" width="512" height="512" x="0" y="0" viewBox="0 0 459.755 459.755" style="enable-background:new 0 0 512 512" xml:space="preserve" class=""><g>
<circle xmlns="http://www.w3.org/2000/svg" style="" cx="229.878" cy="229.878" r="88.816" fill="#e2d784" data-original="#4dcfe0" class=""/>
<g xmlns="http://www.w3.org/2000/svg">
	<path style="" d="M229.878,334.367c-57.469,0-104.49-47.02-104.49-104.49s47.02-104.49,104.49-104.49   s104.49,47.02,104.49,104.49S287.347,334.367,229.878,334.367z M229.878,156.735c-40.229,0-73.143,32.914-73.143,73.143   s32.914,73.143,73.143,73.143s73.143-32.914,73.143-73.143S270.106,156.735,229.878,156.735z" fill="#062c30" data-original="#3a2c51" class=""/>
	<path style="" d="M229.878,459.755c-8.882,0-15.673-6.792-15.673-15.673v-73.143c0-8.882,6.792-15.673,15.673-15.673   s15.673,6.792,15.673,15.673v73.143C245.551,452.963,238.759,459.755,229.878,459.755z" fill="#062c30" data-original="#3a2c51" class=""/>
	<path style="" d="M229.878,104.49c-8.882,0-15.673-6.792-15.673-15.673V15.673C214.204,6.792,220.996,0,229.878,0   s15.673,6.792,15.673,15.673v73.143C245.551,97.698,238.759,104.49,229.878,104.49z" fill="#062c30" data-original="#3a2c51" class=""/>
	<path style="" d="M88.816,245.551H15.673C6.792,245.551,0,238.759,0,229.878s6.792-15.673,15.673-15.673h73.143   c8.882,0,15.673,6.792,15.673,15.673S97.698,245.551,88.816,245.551z" fill="#062c30" data-original="#3a2c51" class=""/>
	<path style="" d="M444.082,245.551h-73.143c-8.882,0-15.673-6.792-15.673-15.673s6.792-15.673,15.673-15.673h73.143   c8.882,0,15.673,6.792,15.673,15.673S452.963,245.551,444.082,245.551z" fill="#062c30" data-original="#3a2c51" class=""/>
	<path style="" d="M79.412,396.016c-4.18,0-7.837-1.567-10.971-4.702c-6.269-6.269-6.269-16.196,0-21.943   l49.633-49.633c6.269-6.269,16.196-6.269,21.943,0c6.269,6.269,6.269,16.196,0,21.943l-49.633,49.633   C87.249,394.449,83.592,396.016,79.412,396.016z" fill="#062c30" data-original="#3a2c51" class=""/>
	<path style="" d="M330.71,144.718c-4.18,0-7.837-1.567-10.971-4.702c-6.269-6.269-6.269-16.196,0-21.943   l49.633-49.633c6.269-6.269,16.196-6.269,21.943,0c6.269,6.269,6.269,16.196,0,21.943l-49.633,49.633   C338.547,143.151,334.89,144.718,330.71,144.718z" fill="#062c30" data-original="#3a2c51" class=""/>
	<path style="" d="M129.045,144.718c-4.18,0-7.837-1.567-10.971-4.702L68.441,90.384   c-6.269-6.269-6.269-16.196,0-21.943c6.269-6.269,16.196-6.269,21.943,0l49.633,49.633c6.269,6.269,6.269,16.196,0,21.943   C136.882,143.151,133.224,144.718,129.045,144.718z" fill="#062c30" data-original="#3a2c51" class=""/>
	<path style="" d="M380.343,396.016c-4.18,0-7.837-1.567-10.971-4.702l-49.633-49.633   c-6.269-6.269-6.269-16.196,0-21.943c6.269-6.269,16.196-6.269,21.943,0l49.633,49.633c6.269,6.269,6.269,16.196,0,21.943   C388.18,394.449,384.522,396.016,380.343,396.016z" fill="#062c30" data-original="#3a2c51" class=""/>
</g>
<g xmlns="http://www.w3.org/2000/svg">
</g>
<g xmlns="http://www.w3.org/2000/svg">
</g>
<g xmlns="http://www.w3.org/2000/svg">
</g>
<g xmlns="http://www.w3.org/2000/svg">
</g>
<g xmlns="http://www.w3.org/2000/svg">
</g>
<g xmlns="http://www.w3.org/2000/svg">
</g>
<g xmlns="http://www.w3.org/2000/svg">
</g>
<g xmlns="http://www.w3.org/2000/svg">
</g>
<g xmlns="http://www.w3.org/2000/svg">
</g>
<g xmlns="http://www.w3.org/2000/svg">
</g>
<g xmlns="http://www.w3.org/2000/svg">
</g>
<g xmlns="http://www.w3.org/2000/svg">
</g>
<g xmlns="http://www.w3.org/2000/svg">
</g>
<g xmlns="http://www.w3.org/2000/svg">
</g>
<g xmlns="http://www.w3.org/2000/svg">
</g>
</g></svg>
