<?xml version="1.0"?>
<svg xmlns="http://www.w3.org/2000/svg" xmlns:xlink="http://www.w3.org/1999/xlink" xmlns:svgjs="http://svgjs.com/svgjs" version="1.1" width="512" height="512" x="0" y="0" viewBox="0 0 490.057 490.057" style="enable-background:new 0 0 512 512" xml:space="preserve" class=""><g>
<g xmlns="http://www.w3.org/2000/svg">
	<path style="" d="M397.322,387.135c0,17.763-14.629,32.392-32.392,32.392c-17.763,0-32.392-14.629-32.392-32.392   c0-22.465,28.212-56.947,32.392-56.947C368.588,330.188,397.322,364.669,397.322,387.135z" fill="#e2d784" data-original="#d4e1f4" class=""/>
	<path style="" d="M277.159,441.992c0,17.763-14.629,32.392-32.392,32.392s-32.392-14.629-32.392-32.392   c0-22.465,28.212-56.947,32.392-56.947C248.947,385.045,277.159,419.527,277.159,441.992z" fill="#e2d784" data-original="#d4e1f4" class=""/>
	<path style="" d="M124.604,330.188c4.18,0,32.914,34.482,32.392,56.947c0,17.763-14.629,32.392-32.392,32.392   s-32.392-14.629-32.392-32.392C92.212,364.669,120.424,330.188,124.604,330.188z" fill="#e2d784" data-original="#d4e1f4" class=""/>
</g>
<path xmlns="http://www.w3.org/2000/svg" style="" d="M375.902,121.208c29.257,12.539,49.633,41.796,49.633,74.71c0,45.453-36.571,82.024-82.024,82.024  H138.188c-40.751,0-73.665-32.914-73.665-73.665c0-30.302,18.808-56.947,45.453-67.918c-3.657-7.837-5.747-16.196-5.747-25.6  c0-33.959,27.69-61.127,61.127-61.127c11.494,0,21.943,3.135,31.347,8.882c17.763-26.122,47.543-42.841,80.98-42.841  c54.857,0,98.743,44.408,98.743,98.743C376.424,117.029,375.902,119.118,375.902,121.208z" fill="#e2d784" data-original="#4dcfe0" class=""/>
<g xmlns="http://www.w3.org/2000/svg">
	<path style="" d="M343.51,293.616H138.188c-49.11,0-89.339-40.229-89.339-89.339   c0-30.824,16.196-59.559,41.796-75.755c-1.567-5.747-2.09-12.016-2.09-17.763c0-42.318,34.482-76.8,76.8-76.8   c9.404,0,18.286,1.567,26.645,4.702C213.42,14.106,244.767,0,277.682,0c62.171,0,112.849,50.155,114.416,111.804   c30.302,17.241,49.11,49.11,49.11,84.114C441.208,249.731,397.322,293.616,343.51,293.616z M165.355,65.306   c-25.078,0-45.453,20.376-45.453,45.453c0,6.792,1.567,13.061,4.18,18.808c1.567,3.657,2.09,8.359,0.522,12.539   c-1.567,4.18-4.702,7.314-8.882,8.882c-21.42,8.882-35.527,30.302-35.527,53.29c0,31.869,26.122,57.992,57.992,57.992H343.51   c36.571,0,66.351-29.78,66.351-66.351c0-25.6-16.196-50.155-40.229-60.082c-5.747-2.612-9.404-8.359-9.404-14.629   c0-1.567,0-3.135,0.522-4.702c0-0.522,0-1.045,0-2.09c0-45.976-37.094-83.069-83.069-83.069c-27.167,0-52.767,13.584-67.918,36.049   c-4.702,6.792-14.106,8.882-20.898,4.702C181.029,67.396,173.714,65.306,165.355,65.306z" fill="#062c30" data-original="#3a2c51" class=""/>
	<path style="" d="M244.767,490.057c-26.645,0-48.065-21.42-48.065-48.065c0-23.51,29.78-72.62,48.065-72.62   s48.065,49.11,48.065,72.62C292.833,468.637,271.412,490.057,244.767,490.057z M244.767,406.988   c-7.314,9.927-16.718,25.6-16.718,35.004c0,8.882,7.837,16.718,16.718,16.718s16.718-7.837,16.718-16.718   C261.486,432.588,252.082,416.914,244.767,406.988z" fill="#062c30" data-original="#3a2c51" class=""/>
	<path style="" d="M124.604,435.2c-26.645,0-48.065-21.42-48.065-48.065c0-23.51,29.78-72.62,48.065-72.62   c6.792,0,12.016,4.18,16.718,8.882c8.359,8.359,31.869,38.661,31.347,64.261C172.669,413.78,151.249,435.2,124.604,435.2z    M124.604,352.131c-7.314,9.927-16.718,25.6-16.718,35.004c0,8.882,7.837,16.718,16.718,16.718s16.718-7.837,16.718-16.718   C141.322,377.731,132.441,362.057,124.604,352.131z" fill="#062c30" data-original="#3a2c51" class=""/>
	<path style="" d="M364.931,435.2c-26.645,0-48.065-21.42-48.065-48.065c0-23.51,29.78-72.62,48.065-72.62   c18.286,0,48.065,49.11,48.065,72.62C412.996,413.78,391.576,435.2,364.931,435.2z M364.931,352.131   c-7.314,9.927-16.718,25.6-16.718,35.004c0,8.882,7.837,16.718,16.718,16.718c8.882,0,16.718-7.837,16.718-16.718   C381.649,377.731,372.245,362.58,364.931,352.131z" fill="#062c30" data-original="#3a2c51" class=""/>
</g>
<g xmlns="http://www.w3.org/2000/svg">
</g>
<g xmlns="http://www.w3.org/2000/svg">
</g>
<g xmlns="http://www.w3.org/2000/svg">
</g>
<g xmlns="http://www.w3.org/2000/svg">
</g>
<g xmlns="http://www.w3.org/2000/svg">
</g>
<g xmlns="http://www.w3.org/2000/svg">
</g>
<g xmlns="http://www.w3.org/2000/svg">
</g>
<g xmlns="http://www.w3.org/2000/svg">
</g>
<g xmlns="http://www.w3.org/2000/svg">
</g>
<g xmlns="http://www.w3.org/2000/svg">
</g>
<g xmlns="http://www.w3.org/2000/svg">
</g>
<g xmlns="http://www.w3.org/2000/svg">
</g>
<g xmlns="http://www.w3.org/2000/svg">
</g>
<g xmlns="http://www.w3.org/2000/svg">
</g>
<g xmlns="http://www.w3.org/2000/svg">
</g>
</g></svg>
