<svg width="276" height="261" viewBox="0 0 276 261" fill="none" xmlns="http://www.w3.org/2000/svg">
<path d="M128.861 128.673V137.032C127.294 188.232 83.9301 231.595 32.7301 233.163H24.3711V224.804C25.9381 173.604 69.3021 130.241 120.502 128.673C120.502 128.673 128.861 128.673 128.861 128.673Z" fill="#E2D784"/>
<path fill-rule="evenodd" clip-rule="evenodd" d="M33.5 249C89.924 243.775 141.27 196.024 142.838 138.032V129.673C142.838 120.792 136.046 114 127.164 114H118.282C58.723 115.567 8.567 166.245 7 226.327L8 251.5L33.5 249ZM110.968 145.869C105.744 181.918 74.919 212.742 39.392 217.445C44.095 181.396 74.919 151.094 110.968 145.869Z" fill="#062C30"/>
<path d="M124.711 18.8018V24.9554C123.557 62.6474 91.6337 94.57 53.9417 95.7243H47.7881V89.5706C48.9417 51.8787 80.865 19.9561 118.557 18.8018C118.557 18.8018 124.711 18.8018 124.711 18.8018Z" fill="#E2D784"/>
<path fill-rule="evenodd" clip-rule="evenodd" d="M54.5085 107.383C96.0462 103.537 133.846 68.3837 135 25.6917V19.538C135 13.0001 130 8 123.461 8H116.923C73.077 9.15358 36.1536 46.4613 35 90.6919L35.7362 109.224L54.5085 107.383ZM111.538 31.461C107.692 57.9993 85 80.691 58.846 84.1532C62.3083 57.615 85 35.3075 111.538 31.461Z" fill="#062C30"/>
<path d="M258.711 46.8018V52.9554C257.557 90.6474 225.634 122.57 187.942 123.724H181.788V117.571C182.942 79.8787 214.865 47.9561 252.557 46.8018C252.557 46.8018 258.711 46.8018 258.711 46.8018Z" fill="#E2D784"/>
<path fill-rule="evenodd" clip-rule="evenodd" d="M188.509 135.383C230.046 131.537 267.846 96.3837 269 53.6917V47.538C269 41.0001 264 36 257.461 36H250.923C207.077 37.1536 170.154 74.4613 169 118.692L169.736 137.224L188.509 135.383ZM245.538 59.461C241.692 85.9993 219 108.691 192.846 112.153C196.308 85.615 219 63.3075 245.538 59.461Z" fill="#062C30"/>
</svg>
