<svg width="986" height="454" viewBox="0 0 986 454" fill="none" xmlns="http://www.w3.org/2000/svg">
<g clip-path="url(#clip0_22_5)">
<path d="M705.079 55.4449C692.094 47.0618 671.602 50.3967 669.308 50.8034C667.437 51.1353 665.791 52.2301 664.761 53.826C663.73 55.4218 663.402 57.3855 663.878 59.2142C664.263 60.7347 666.838 70.3084 672.434 78.9639C666.042 78.1281 659.596 77.4543 653.102 76.9547C652.419 76.9024 651.755 76.9551 651.119 77.0949C650.964 77.0244 624.435 67.4559 609.994 70.5663C595.864 73.6098 573.594 91.6572 571.101 93.7046C569.124 95.3296 568.219 97.9255 568.758 100.426C569.297 102.93 571.19 104.92 573.661 105.587C576.619 106.387 601.74 112.978 616.368 111.043C615.057 120.995 616.959 130.337 617.277 131.812C618.081 135.479 621.691 137.807 625.364 137.032C627.578 136.566 647.236 132.089 655.703 118.973C661.1 110.613 661.637 99.1453 661.23 91.4209C671.69 92.5031 681.829 94.0368 691.65 95.9696C685.782 100.356 679.446 105.864 675.348 111.653C665.521 125.534 668.962 147.279 669.385 149.714C669.717 151.582 670.802 153.236 672.393 154.27C673.988 155.306 675.937 155.631 677.78 155.172C680.336 154.531 703.011 148.527 712.665 134.894C718.909 126.07 718.961 112.158 717.968 102.281C730.8 105.931 743.027 110.263 754.665 115.139C748.193 116.782 741.744 119.321 737.138 123.249C724.532 134.012 720.285 159.8 719.843 162.706C719.542 164.691 720.129 166.709 721.447 168.225C722.767 169.738 724.684 170.598 726.694 170.569C729.688 170.531 756.311 169.869 768.863 159.156C777.233 152.016 781.774 138.402 784.009 129.174C794.544 134.865 804.513 140.975 813.919 147.373C815.257 149.109 816.729 150.791 818.296 152.41C811.966 152.025 805.724 152.495 800.395 154.473C780.934 161.708 764.867 192.32 763.101 195.784C762.231 197.49 762.115 199.477 762.78 201.273C763.448 203.065 764.835 204.496 766.605 205.221C770.208 206.69 802.367 219.378 821.828 212.144C835.872 206.925 847.874 189.664 854.133 179.118C863.406 187.534 871.89 196.059 879.613 204.469C879.739 206.081 879.954 207.663 880.283 209.19C880.51 210.244 880.811 211.299 881.147 212.352C872.522 210.061 863.553 208.953 855.79 210.625C832.776 215.582 809.546 247.33 806.973 250.932C805.857 252.497 805.45 254.462 805.855 256.344C806.261 258.226 807.44 259.848 809.102 260.815C812.93 263.039 847.17 282.408 870.184 277.451C885.28 274.2 900.189 259.505 909.393 248.735C914.89 253.405 919.301 256.547 920.512 257.392C920.773 257.574 921.046 257.728 921.326 257.87C928.415 268.514 934.559 278.691 939.809 288.022C927.352 283.097 909.904 280.084 887.233 284.967C836.703 295.851 825.213 331.962 824.748 333.493C823.915 336.246 824.89 339.224 827.192 340.948C828.628 342.021 862.79 367.152 903.063 358.477C930.094 352.655 948.019 334.169 957.155 322.139C961.924 332.666 964.219 339.011 964.287 339.199C965.551 342.756 969.458 344.613 973.013 343.351C976.288 342.186 978.123 338.784 977.411 335.476C977.349 335.189 977.268 334.903 977.169 334.619C976.483 332.69 963.255 296.045 932.944 250.571C938.777 239.735 951.181 213.7 947.109 194.793C942.152 171.78 910.405 148.552 906.802 145.979C905.236 144.861 903.272 144.453 901.39 144.859C899.508 145.264 897.885 146.444 896.919 148.108C895.368 150.775 885.495 168.22 881.329 186.339C874.605 179.404 867.706 172.778 860.645 166.459C864.088 157.135 870.654 136.294 867.276 120.614C866.953 119.113 866.536 117.657 866.02 116.265C858.786 96.8045 828.176 80.7369 824.709 78.9706C823.006 78.1002 821.014 77.9855 819.224 78.6525C817.429 79.3206 815.998 80.705 815.276 82.4775C814.076 85.4156 805.413 107.361 806.191 125.91C805.725 125.628 805.267 125.336 804.799 125.057C798.971 121.546 793.06 118.224 787.074 115.086C788.716 107.693 790.986 94.0984 788.608 83.0616C788.139 80.8819 787.489 78.8039 786.616 76.8915C779.735 61.8124 756.105 50.644 753.433 49.4223C751.608 48.5834 749.507 48.5935 747.686 49.4473C745.867 50.298 744.515 51.9086 743.99 53.8463C743.236 56.6228 737.048 80.5124 742.633 95.6986C736.403 93.495 730.106 91.4751 723.744 89.6359C721.98 82.3322 716.323 62.7009 705.079 55.4449ZM682.176 139.401C682.049 132.938 682.849 124.716 686.508 119.549C690.48 113.935 698.053 108.005 704.349 103.704C705.148 111.754 705.121 121.886 701.504 126.994C697.6 132.509 689.009 136.793 682.176 139.401ZM759.989 148.757C755.074 152.951 744.264 155.318 735.158 156.323C737.221 148.375 740.868 138.04 746.016 133.648C750.921 129.461 761.625 127.189 770.61 126.28C768.654 134.129 765.127 144.37 759.989 148.757ZM867.304 264.083C855.03 266.727 834.923 258.649 822.882 252.671C831.384 242.268 846.363 226.638 858.668 223.987C867.549 222.075 880.392 225.828 891.287 230.324C893.814 233.533 896.558 236.586 899.329 239.406C890.791 249.39 878.104 261.757 867.304 264.083ZM839.832 332.886C844.347 324.15 857.593 305.334 890.108 298.331C915.416 292.879 932.697 298.731 942.66 304.493L922.714 308.789C919.031 309.583 916.678 313.231 917.471 316.911C918.264 320.595 921.909 322.948 925.593 322.155L942.458 318.522C933.894 328.46 919.747 340.896 900.184 345.109C873.754 350.802 849.518 338.707 839.832 332.886ZM933.743 197.672C936.385 209.936 928.23 229.75 922.218 241.559C911.878 233.27 896.289 218.572 893.648 206.308C891.004 194.037 899.079 173.936 905.059 161.892C915.467 170.407 931.1 185.4 933.743 197.672ZM817.065 199.326C807.397 202.919 790.13 198.796 779.096 195.202C785.094 185.281 795.463 170.889 805.158 167.288C814.814 163.7 831.855 167.919 842.695 171.568C836.87 181.414 826.719 195.739 817.065 199.326ZM853.205 121.028C856.602 130.19 852.986 145.995 849.489 156.846C840.957 149.776 832.206 143.147 823.247 136.972C822.378 135.625 821.666 134.276 821.167 132.935C817.577 123.269 821.701 106.002 825.292 94.9665C835.213 100.964 849.602 111.334 853.205 121.028ZM755.363 65.879C763.001 70.3826 771.534 76.7747 774.178 82.5696C776.858 88.4389 776.1 99.356 774.505 108.244C767.497 104.205 758.619 97.9997 755.814 91.8516C753.13 85.9697 753.824 74.9159 755.363 65.879ZM697.663 66.9305C701.742 69.5619 705.547 77.333 708.158 84.9568C702.041 83.5811 694.925 81.4346 690.248 78.4156C685.661 75.4566 682.088 69.0233 679.783 63.524C685.743 63.3601 693.078 63.971 697.663 66.9305ZM591.356 95.5588C599.064 90.1919 607.631 85.0607 612.873 83.9316C618.02 82.8229 626.743 84.2465 634.578 86.2437C628.598 91.0336 621.173 96.1291 615.751 97.2969C610.52 98.4237 600.595 97.2755 591.356 95.5588ZM629.703 121.451C629.393 115.965 629.787 109.084 632.498 104.537C637.78 101.277 642.738 97.368 646.487 94.1676C646.868 93.9981 647.248 93.8343 647.624 93.6769C647.788 99.6372 647.177 106.972 644.218 111.556C641.274 116.115 634.996 119.418 629.703 121.451Z" fill="#E2D784"/>
</g>
<path d="M4 294C43 270.5 193.5 567.5 303.5 389C413.5 210.5 630.527 360.066 755.931 401.567C881.335 443.068 1014.5 444.5 969.5 334" stroke="#E2D784" stroke-width="13.5"/>
<defs>
<clipPath id="clip0_22_5">
<rect width="350" height="350" fill="white" transform="translate(636.697 415.85) rotate(-102.155)"/>
</clipPath>
</defs>
</svg>
