<svg width="416" height="416" viewBox="0 0 416 416" fill="none" xmlns="http://www.w3.org/2000/svg">
<g clip-path="url(#clip0_22_2)">
<path d="M142.079 55.4449C129.094 47.0618 108.602 50.3967 106.308 50.8034C104.437 51.1353 102.791 52.2301 101.761 53.826C100.73 55.4218 100.402 57.3855 100.878 59.2142C101.263 60.7347 103.838 70.3084 109.434 78.9639C103.042 78.1281 96.5957 77.4543 90.1018 76.9547C89.4186 76.9024 88.7553 76.9551 88.1189 77.0949C87.9644 77.0244 61.4345 67.4559 46.9937 70.5663C32.8636 73.6098 10.5938 91.6572 8.10116 93.7046C6.12393 95.3296 5.21897 97.9255 5.75762 100.426C6.29683 102.93 8.18967 104.92 10.6606 105.587C13.6189 106.387 38.74 112.978 53.3684 111.043C52.0566 120.995 53.9595 130.337 54.2771 131.812C55.0807 135.479 58.6907 137.807 62.3643 137.032C64.5776 136.566 84.2361 132.089 92.7032 118.973C98.1 110.613 98.6373 99.1453 98.2301 91.4209C108.69 92.5031 118.829 94.0368 128.65 95.9696C122.782 100.356 116.446 105.864 112.348 111.653C102.521 125.534 105.962 147.279 106.385 149.714C106.717 151.582 107.802 153.236 109.393 154.27C110.988 155.306 112.937 155.631 114.78 155.172C117.336 154.531 140.011 148.527 149.665 134.894C155.909 126.07 155.961 112.158 154.968 102.281C167.8 105.931 180.027 110.263 191.665 115.139C185.193 116.782 178.744 119.321 174.138 123.249C161.532 134.012 157.285 159.8 156.843 162.706C156.542 164.691 157.129 166.709 158.447 168.225C159.767 169.738 161.684 170.598 163.694 170.569C166.688 170.531 193.311 169.869 205.863 159.156C214.233 152.016 218.774 138.402 221.009 129.174C231.544 134.865 241.513 140.975 250.919 147.373C252.257 149.109 253.729 150.791 255.296 152.41C248.966 152.025 242.724 152.495 237.395 154.473C217.934 161.708 201.867 192.32 200.101 195.784C199.231 197.49 199.115 199.477 199.78 201.273C200.448 203.065 201.835 204.496 203.605 205.221C207.208 206.69 239.367 219.378 258.828 212.144C272.872 206.925 284.874 189.664 291.133 179.118C300.406 187.534 308.89 196.059 316.613 204.469C316.739 206.081 316.954 207.663 317.283 209.19C317.51 210.244 317.811 211.299 318.147 212.352C309.522 210.061 300.553 208.953 292.79 210.625C269.776 215.582 246.546 247.33 243.973 250.932C242.857 252.497 242.45 254.462 242.855 256.344C243.261 258.226 244.44 259.848 246.102 260.815C249.93 263.039 284.17 282.408 307.184 277.451C322.28 274.2 337.189 259.505 346.393 248.735C351.89 253.405 356.301 256.547 357.512 257.392C357.773 257.574 358.046 257.728 358.326 257.87C365.415 268.514 371.559 278.691 376.809 288.022C364.352 283.097 346.904 280.084 324.233 284.967C273.703 295.851 262.213 331.962 261.748 333.493C260.915 336.246 261.89 339.224 264.192 340.948C265.628 342.021 299.79 367.152 340.063 358.477C367.094 352.655 385.019 334.169 394.155 322.139C398.924 332.666 401.219 339.011 401.287 339.199C402.551 342.756 406.458 344.613 410.013 343.351C413.288 342.186 415.123 338.784 414.411 335.476C414.349 335.189 414.268 334.903 414.169 334.619C413.483 332.69 400.255 296.045 369.944 250.571C375.777 239.735 388.181 213.7 384.109 194.793C379.152 171.78 347.405 148.552 343.802 145.979C342.236 144.861 340.272 144.453 338.39 144.859C336.508 145.264 334.885 146.444 333.919 148.108C332.368 150.775 322.495 168.22 318.329 186.339C311.605 179.404 304.706 172.778 297.645 166.459C301.088 157.135 307.654 136.294 304.276 120.614C303.953 119.113 303.536 117.657 303.02 116.265C295.786 96.8045 265.176 80.7369 261.709 78.9706C260.006 78.1002 258.014 77.9855 256.224 78.6525C254.429 79.3206 252.998 80.705 252.276 82.4775C251.076 85.4156 242.413 107.361 243.191 125.91C242.725 125.628 242.267 125.336 241.799 125.057C235.971 121.546 230.06 118.224 224.074 115.086C225.716 107.693 227.986 94.0984 225.608 83.0616C225.139 80.8819 224.489 78.8039 223.616 76.8915C216.735 61.8124 193.105 50.644 190.433 49.4223C188.608 48.5834 186.507 48.5935 184.686 49.4473C182.867 50.298 181.515 51.9086 180.99 53.8463C180.236 56.6228 174.048 80.5124 179.633 95.6986C173.403 93.495 167.106 91.4751 160.744 89.6359C158.98 82.3322 153.323 62.7009 142.079 55.4449ZM119.176 139.401C119.049 132.938 119.849 124.716 123.508 119.549C127.48 113.935 135.053 108.005 141.349 103.704C142.148 111.754 142.121 121.886 138.504 126.994C134.6 132.509 126.009 136.793 119.176 139.401ZM196.989 148.757C192.074 152.951 181.264 155.318 172.158 156.323C174.221 148.375 177.868 138.04 183.016 133.648C187.921 129.461 198.625 127.189 207.61 126.28C205.654 134.129 202.127 144.37 196.989 148.757ZM304.304 264.083C292.03 266.727 271.923 258.649 259.882 252.671C268.384 242.268 283.363 226.638 295.668 223.987C304.549 222.075 317.392 225.828 328.287 230.324C330.814 233.533 333.558 236.586 336.329 239.406C327.791 249.39 315.104 261.757 304.304 264.083ZM276.832 332.886C281.347 324.15 294.593 305.334 327.108 298.331C352.416 292.879 369.697 298.731 379.66 304.493L359.714 308.789C356.031 309.583 353.678 313.231 354.471 316.911C355.264 320.595 358.909 322.948 362.593 322.155L379.458 318.522C370.894 328.46 356.747 340.896 337.184 345.109C310.754 350.802 286.518 338.707 276.832 332.886ZM370.743 197.672C373.385 209.936 365.23 229.75 359.218 241.559C348.878 233.27 333.289 218.572 330.648 206.308C328.004 194.037 336.079 173.936 342.059 161.892C352.467 170.407 368.1 185.4 370.743 197.672ZM254.065 199.326C244.397 202.919 227.13 198.796 216.096 195.202C222.094 185.281 232.463 170.889 242.158 167.288C251.814 163.7 268.855 167.919 279.695 171.568C273.87 181.414 263.719 195.739 254.065 199.326ZM290.205 121.028C293.602 130.19 289.986 145.995 286.489 156.846C277.957 149.776 269.206 143.147 260.247 136.972C259.378 135.625 258.666 134.276 258.167 132.935C254.577 123.269 258.701 106.002 262.292 94.9665C272.213 100.964 286.602 111.334 290.205 121.028ZM192.363 65.879C200.001 70.3826 208.534 76.7747 211.178 82.5696C213.858 88.4389 213.1 99.356 211.505 108.244C204.497 104.205 195.619 97.9997 192.814 91.8516C190.13 85.9697 190.824 74.9159 192.363 65.879ZM134.663 66.9305C138.742 69.5619 142.547 77.333 145.158 84.9568C139.041 83.5811 131.925 81.4346 127.248 78.4156C122.661 75.4566 119.088 69.0233 116.783 63.524C122.743 63.3601 130.078 63.971 134.663 66.9305ZM28.3559 95.5588C36.0637 90.1919 44.6308 85.0607 49.8725 83.9316C55.0202 82.8229 63.7427 84.2465 71.578 86.2437C65.5979 91.0336 58.1731 96.1291 52.7513 97.2969C47.52 98.4237 37.5949 97.2755 28.3559 95.5588ZM66.703 121.451C66.3926 115.965 66.7871 109.084 69.4979 104.537C74.7804 101.277 79.7376 97.368 83.487 94.1676C83.8684 93.9981 84.2483 93.8343 84.6241 93.6769C84.788 99.6372 84.1771 106.972 81.2175 111.556C78.2743 116.115 71.9958 119.418 66.703 121.451Z" fill="#E2D784"/>
</g>
<defs>
<clipPath id="clip0_22_2">
<rect width="350" height="350" fill="white" transform="translate(73.6967 415.85) rotate(-102.155)"/>
</clipPath>
</defs>
</svg>
